<?xml version="1.0" encoding="utf-8"?>
<!-- Generator: Adobe Illustrator 23.0.3, SVG Export Plug-In . SVG Version: 6.00 Build 0)  -->
<svg version="1.1" id="Layer_1" xmlns="http://www.w3.org/2000/svg" xmlns:xlink="http://www.w3.org/1999/xlink" x="0px" y="0px"
	 viewBox="0 0 40 40" style="enable-background:new 0 0 40 40;" xml:space="preserve">
<style type="text/css">
	.st0{fill:none;}
	.st1{fill:#FFFFFF;}
</style>
<title>Portable-icon</title>
<rect class="st0" width="40" height="40"/>
<g>
	<path class="st1" d="M31.95323,16.51758c-0.05859-0.19385-0.22852-0.33301-0.43066-0.35205
		c-4.8501-0.46924-8.40143,1.13342-10.98334,3.487c-2.26471-0.68262-6.07178,1.10321-6.51569,1.31818
		c-0.19629,0.09521-0.30859,0.30713-0.27734,0.52295c0.03223,0.21631,0.2002,0.38623,0.41602,0.4209
		c1.92322,0.30798,2.75555,1.53467,3.0025,1.98663c-1.8269,3.11157-2.66388,6.27417-2.96246,7.63788
		c-2.10059-0.82324-5.79199,0.35547-6.25146,0.50879c-0.19971,0.06738-0.33643,0.25195-0.3418,0.46191
		c-0.00488,0.21094,0.12256,0.40234,0.31885,0.47852l5.48438,2.13281l1.40918,4.52734
		c0.05273,0.16895,0.19141,0.29785,0.36328,0.33789C15.22277,39.99609,15.26085,40,15.29894,40
		c0.13477,0,0.2666-0.05469,0.36133-0.15527c1.86621-1.9541,1.50976-4.59082,1.22851-5.74805
		c3.75867-0.58435,6.83649-1.65155,9.25836-3.15808c0.95105,0.83673,2.13055,2.1203,2.18597,2.78796
		c0.01855,0.22461,0.18359,0.4082,0.4043,0.4502c0.03125,0.00586,0.0625,0.00879,0.09375,0.00879
		c0.1875,0,0.36328-0.10547,0.44824-0.27832c0.0705-0.14197,1.6604-3.43231,0.76636-6.54034
		c0.13391-0.18579,0.28638-0.35968,0.40942-0.55243C33.55382,21.96094,32.01964,16.73779,31.95323,16.51758z M15.72081,21.33496
		c1.19598-0.45331,2.78937-0.91339,3.95508-0.82471c-0.72827,0.77521-1.37018,1.6048-1.93054,2.45502
		C17.37328,22.45245,16.73979,21.78558,15.72081,21.33496z M16.18077,33.19043c-0.14941,0.02051-0.28125,0.1084-0.3584,0.2373
		c-0.07812,0.12891-0.09375,0.28613-0.04199,0.42773c0.00977,0.02832,0.89453,2.55664-0.29199,4.57031l-1.19238-3.83203
		c-0.04492-0.14551-0.1543-0.2627-0.2959-0.31738l-4.30225-1.67285c1.56201-0.35645,3.66357-0.62012,4.54541,0.09473
		c0.13867,0.11328,0.3252,0.14258,0.49512,0.0791c0.16699-0.06445,0.28711-0.21289,0.31445-0.38965
		c0.0249-0.16101,2.58288-15.64301,15.29254-15.28339l-0.88043,0.90155l0.71484,0.69824l1.00494-1.02899
		c0.20483,1.185,0.4079,3.44373-0.33008,5.8819c-0.6922,0.39557-3.4906,1.85718-5.64459,1.00256
		c-1.17773-0.46729-2.00195-1.5835-2.44922-3.31641l-0.96875,0.25c0.5332,2.06152,1.55957,3.40625,3.05273,3.99707
		c0.60156,0.23828,1.23047,0.33301,1.85254,0.33301c1.38232,0,2.71478-0.46826,3.63824-0.88531
		c-0.2052,0.45117-0.44434,0.90277-0.73004,1.34918C27.26476,29.94531,22.74718,32.26758,16.18077,33.19043z M28.80773,32.37012
		c-0.508-0.77435-1.26935-1.52466-1.78979-1.99677c0.83655-0.6001,1.57703-1.26398,2.22461-1.9884
		C29.46343,29.88477,29.12578,31.39172,28.80773,32.37012z"/>
	
		<rect x="26.25067" y="18.99015" transform="matrix(0.65712 -0.75379 0.75379 0.65712 -5.46281 26.97103)" class="st1" width="1.32895" height="1.00016"/>
</g>
</svg>
