<?xml version="1.0" encoding="utf-8"?>
<!-- Generator: Adobe Illustrator 23.0.3, SVG Export Plug-In . SVG Version: 6.00 Build 0)  -->
<svg version="1.1" id="Layer_1" xmlns="http://www.w3.org/2000/svg" xmlns:xlink="http://www.w3.org/1999/xlink" x="0px" y="0px"
	 viewBox="0 0 40 40" style="enable-background:new 0 0 40 40;" xml:space="preserve">
<style type="text/css">
	.st0{fill:none;}
	.st1{fill:#FFFFFF;}
</style>
<title>Portable-icon</title>
<rect class="st0" width="40" height="40"/>
<g>
	<path class="st1" d="M10.66224,18.89893c4.10449-0.19385,7.09961-2.95898,7.22949-3.08057l-0.68359-0.72949
		c-0.03027,0.02832-3.05371,2.8208-6.99805,2.8208c-0.24707,0-0.45703,0.18018-0.49414,0.42383
		c-0.03027,0.19922-0.71777,4.93018,1.99512,9.71289l0.86914-0.49316C10.48938,23.86572,10.56653,20.12256,10.66224,18.89893z"/>
	<path class="st1" d="M12.24524,29.69775c0.02246,0.04834,0.57812,1.1958,1.48145,2.44336l0.81055-0.58691
		c-0.84863-1.17139-1.38574-2.2793-1.3916-2.29004L12.24524,29.69775z"/>
	<path class="st1" d="M33.52845,15.01123c-0.10742-0.09375-0.25195-0.13818-0.39453-0.1167
		c-0.06641,0.00879-7.12598,0.89258-13.10645-5.16211c-0.1875-0.18945-0.52344-0.18945-0.71094,0
		c-5.97461,6.0498-12.37793,5.17432-12.44434,5.1626c-0.14258-0.02002-0.28711,0.02051-0.39844,0.11426
		c-0.10938,0.09375-0.17383,0.23047-0.17578,0.375C6.06165,36.68604,19.34876,39.95703,19.48255,39.9873
		C19.51966,39.99561,19.55677,40,19.59388,40c0.03516,0,0.07031-0.00391,0.10449-0.01123
		c0.14746-0.03125,3.64355-0.81152,7.13867-4.25879c3.2002-3.15576,6.98828-9.24756,6.86517-20.3457
		C33.70032,15.24072,33.63684,15.10498,33.52845,15.01123z M19.59681,38.98389c-0.58203-0.16504-3.40723-1.08105-6.17285-4.00293
		c-2.81152-2.9707-6.12988-8.6748-6.12891-19.04297c1.74512,0.09814,7.12891-0.06885,12.37695-5.15088
		c5.32129,5.13232,11.19922,5.25146,13.0332,5.14844C32.69544,34.93359,20.86438,38.64258,19.59681,38.98389z"/>
</g>
</svg>
