<?xml version="1.0" encoding="utf-8"?>
<!-- Generator: Adobe Illustrator 23.0.3, SVG Export Plug-In . SVG Version: 6.00 Build 0)  -->
<svg version="1.1" id="Layer_1" xmlns="http://www.w3.org/2000/svg" xmlns:xlink="http://www.w3.org/1999/xlink" x="0px" y="0px"
	 viewBox="0 0 40 40" style="enable-background:new 0 0 40 40;" xml:space="preserve">
<style type="text/css">
	.st0{fill:none;}
	.st1{fill:#FFFFFF;}
</style>
<title>Portable-icon</title>
<rect class="st0" width="40" height="40"/>
<g>
	<path class="st1" d="M35.79883,34.23242c-0.44531-0.34961-0.99902-0.7832-2.03418-0.7832s-1.58789,0.43359-2.0332,0.78223
		c-0.40625,0.31836-0.72656,0.57031-1.41699,0.57031c-0.68848,0-1.00879-0.25098-1.41406-0.56934
		c-0.44434-0.34863-0.99707-0.7832-2.03125-0.7832s-1.58691,0.43457-2.03027,0.7832
		c-0.40527,0.31836-0.72559,0.56934-1.41309,0.56934s-1.00781-0.25098-1.41309-0.56934
		c-0.44434-0.34863-0.99707-0.7832-2.03125-0.7832c-1.0332,0-1.58496,0.43457-2.0293,0.7832
		c-0.4043,0.31836-0.72363,0.56934-1.41016,0.56934c-0.68555,0-1.00488-0.25098-1.4082-0.56934
		c-0.44336-0.34863-0.99512-0.7832-2.02637-0.7832c-1.03369,0-1.58643,0.43457-2.03076,0.7832
		c-0.40479,0.31836-0.72461,0.56934-1.41211,0.56934s-1.00684-0.25098-1.41162-0.56934
		c-0.44385-0.34863-0.99609-0.7832-2.0293-0.7832c-1.03271,0-1.58496,0.43457-2.02881,0.7832
		c-0.4043,0.31836-0.72363,0.56934-1.41064,0.56934v1c1.03271,0,1.58496-0.43457,2.02881-0.7832
		c0.4043-0.31836,0.72363-0.56934,1.41064-0.56934s1.00684,0.25098,1.41113,0.56934c0.44385,0.34863,0.99658,0.7832,2.02979,0.7832
		c1.03369,0,1.58594-0.43457,2.03027-0.7832c0.40479-0.31836,0.7251-0.56934,1.4126-0.56934
		c0.68457,0,1.00391,0.25098,1.40723,0.56934c0.44336,0.34863,0.99512,0.7832,2.02734,0.7832
		c1.0332,0,1.58496-0.43457,2.0293-0.7832c0.4043-0.31836,0.72363-0.56934,1.41016-0.56934
		c0.68848,0,1.00879,0.25098,1.41406,0.56934c0.44434,0.34863,0.99707,0.7832,2.03027,0.7832
		c1.03418,0,1.58691-0.43457,2.03027-0.7832c0.40527-0.31836,0.72559-0.56934,1.41309-0.56934
		c0.68848,0,1.00879,0.25098,1.41406,0.56934c0.44434,0.34863,0.99707,0.7832,2.03125,0.7832
		c1.03516,0,1.58887-0.43457,2.03418-0.7832c0.40625-0.31836,0.72656-0.56934,1.41602-0.56934
		c0.69043,0,1.01074,0.25098,1.41699,0.56934c0.44531,0.34961,0.99902,0.7832,2.03418,0.7832v-1
		C36.52539,34.80176,36.20508,34.55078,35.79883,34.23242z"/>
	<path class="st1" d="M33.76465,37.64746c-1.03516,0-1.58789,0.43359-2.0332,0.78223C31.3252,38.74805,31.00488,39,30.31445,39
		c-0.68848,0-1.00879-0.25098-1.41406-0.56934c-0.44434-0.34863-0.99707-0.7832-2.03125-0.7832s-1.58691,0.43457-2.03027,0.7832
		C24.43359,38.74902,24.11328,39,23.42578,39s-1.00781-0.25098-1.41309-0.56934c-0.44434-0.34863-0.99707-0.7832-2.03125-0.7832
		c-1.0332,0-1.58496,0.43457-2.0293,0.7832C17.54785,38.74902,17.22852,39,16.54199,39c-0.68555,0-1.00488-0.25098-1.4082-0.56934
		c-0.44336-0.34863-0.99512-0.7832-2.02637-0.7832c-1.03369,0-1.58643,0.43457-2.03076,0.7832
		C10.67188,38.74902,10.35205,39,9.66455,39s-1.00684-0.25098-1.41162-0.56934c-0.44385-0.34863-0.99609-0.7832-2.0293-0.7832
		c-1.03271,0-1.58496,0.43457-2.02881,0.7832C3.79053,38.74902,3.47119,39,2.78418,39v1c1.03271,0,1.58496-0.43457,2.02881-0.7832
		c0.4043-0.31836,0.72363-0.56934,1.41064-0.56934s1.00684,0.25098,1.41113,0.56934C8.07861,39.56543,8.63135,40,9.66455,40
		c1.03369,0,1.58594-0.43457,2.03027-0.7832c0.40479-0.31836,0.7251-0.56934,1.4126-0.56934
		c0.68457,0,1.00391,0.25098,1.40723,0.56934C14.95801,39.56543,15.50977,40,16.54199,40c1.0332,0,1.58496-0.43457,2.0293-0.7832
		c0.4043-0.31836,0.72363-0.56934,1.41016-0.56934c0.68848,0,1.00879,0.25098,1.41406,0.56934
		C21.83984,39.56543,22.39258,40,23.42578,40c1.03418,0,1.58691-0.43457,2.03027-0.7832
		c0.40527-0.31836,0.72559-0.56934,1.41309-0.56934c0.68848,0,1.00879,0.25098,1.41406,0.56934
		C28.72754,39.56543,29.28027,40,30.31445,40c1.03516,0,1.58887-0.43457,2.03418-0.7832
		c0.40625-0.31836,0.72656-0.56934,1.41602-0.56934c0.69043,0,1.01074,0.25098,1.41699,0.56934
		C35.62695,39.56641,36.18066,40,37.21582,40v-1c-0.69043,0-1.01074-0.25098-1.41699-0.56934
		C35.35352,38.08105,34.7998,37.64746,33.76465,37.64746z"/>
	<rect x="26.38281" y="12.98389" class="st1" width="1" height="4.36182"/>
	<rect x="29.38574" y="7.83496" class="st1" width="1" height="9.51074"/>
	<path class="st1" d="M4.7915,30.64062h1V16.31134l8.18701,7.86176v0.82397h-4.7583c-0.27637,0-0.5,0.22363-0.5,0.5v3.14746
		c0,0.27637,0.22363,0.5,0.5,0.5h3.86182v2.44336h1v-2.44336h3.79102v3.0332h1v-3.0332h6.9375v2.44336h1v-2.44336h3.79102v3.67773h1
		v-3.67773h3.79102c0.27637,0,0.5-0.22363,0.5-0.5v-3.14746c0-0.27637-0.22363-0.5-0.5-0.5h-1.92773v-5.98145
		c0-0.27637-0.22363-0.5-0.5-0.5h-8.01611L22.5293,7.69043c-0.05176-0.22852-0.25391-0.39111-0.48828-0.39111h-2.20898
		c-0.23438,0-0.43652,0.1626-0.48828,0.39111l-2.41943,10.8252h-2.28406l-7.69788-5.55664
		c-0.70996-0.51367-1.68555-0.37256-2.22217,0.31982c-0.47583,0.61414-0.42737,1.45703,0.07129,2.03436V30.64062z
		 M34.89258,28.14453H9.72021v-2.14746h25.17236V28.14453z M20.23242,8.29932h1.4082l2.2832,10.21631h-5.97461L20.23242,8.29932z
		 M17.3252,19.51562h7.22266h7.91699v5.48145H14.97852v-5.48145H17.3252z M5.51025,13.89111
		c0.20459-0.26416,0.57568-0.31738,0.84668-0.12158l7.62158,5.50189v3.5152l-8.4082-8.07373
		C5.34277,14.49414,5.31689,14.14062,5.51025,13.89111z"/>
</g>
</svg>
