<?xml version="1.0" encoding="utf-8"?>
<!-- Generator: Adobe Illustrator 23.0.3, SVG Export Plug-In . SVG Version: 6.00 Build 0)  -->
<svg version="1.1" id="Layer_1" xmlns="http://www.w3.org/2000/svg" xmlns:xlink="http://www.w3.org/1999/xlink" x="0px" y="0px"
	 viewBox="0 0 40 40" style="enable-background:new 0 0 40 40;" xml:space="preserve">
<style type="text/css">
	.st0{fill:none;}
	.st1{fill:#FFFFFF;}
</style>
<title>Portable-icon</title>
<rect class="st0" width="40" height="40"/>
<path class="st1" d="M27.57764,35.62402l0.99023-0.14062l-1.55469-11.00684l-0.99023,0.14062l0.73157,5.17926l-2.00439-0.64716
	l-0.77216-5.46564c1.19177-0.9624,2.01288-2.36072,2.22797-3.95026h1.44104v-1h-1.37891v-6.664l1.14355,0.6098l0.4707-0.88281
	L20.36475,7.7876c-0.14648-0.07812-0.32422-0.07812-0.4707,0l-7.51758,4.00879l0.4707,0.88281l7.28223-3.8833l5.13867,2.74023
	v7.19727H14.9917v-5.18457h-1v5.18457h-1.37988v1h1.44196c0.22784,1.68463,1.13928,3.15131,2.44763,4.11505l-1.25482,8.88104
	l0.99023,0.14062l0.7323-5.18274l6.87811,2.22064l0.26343,1.86462L12.91284,36.3045l1.7146-12.13654l-0.99023-0.14062
	l-2.20508,15.6084l0.99023,0.14062l0.32874-2.3269l11.50385-4.6557L25.27295,40l0.99023-0.14062l-1.3576-9.60974l2.00433,0.64716
	L27.57764,35.62402z M23.80829,22.48279l-0.38843-2.74939h1.76471C25.01172,20.79266,24.52527,21.745,23.80829,22.48279z
	 M15.07513,19.7334h7.33478l0.49268,3.48767c-0.80164,0.51727-1.75049,0.82581-2.77319,0.82581
	C17.57898,24.04688,15.47308,22.17316,15.07513,19.7334z M17.11102,26.68304l0.32062-2.26935
	c0.81549,0.40143,1.729,0.63318,2.69775,0.63318c1.05878,0,2.05573-0.26959,2.92609-0.74353l0.63635,4.50427L17.11102,26.68304z"/>
</svg>
