<?xml version="1.0" encoding="utf-8"?>
<!-- Generator: Adobe Illustrator 23.0.3, SVG Export Plug-In . SVG Version: 6.00 Build 0)  -->
<svg version="1.1" id="Layer_1" xmlns="http://www.w3.org/2000/svg" xmlns:xlink="http://www.w3.org/1999/xlink" x="0px" y="0px"
	 viewBox="0 0 40 40" style="enable-background:new 0 0 40 40;" xml:space="preserve">
<style type="text/css">
	.st0{fill:none;}
	.st1{fill:#FFFFFF;}
</style>
<title>Portable-icon</title>
<rect class="st0" width="40" height="40"/>
<g>
	<path class="st1" d="M35.71606,34.25781c-0.44336-0.34668-0.99414-0.7793-2.02539-0.7793
		c-1.03027,0-1.58203,0.43262-2.02441,0.7793c-0.40332,0.31641-0.72168,0.56641-1.40723,0.56641
		c-0.68359,0-1.00098-0.25-1.4043-0.56641c-0.44238-0.34668-0.99219-0.7793-2.02246-0.7793
		c-1.02832,0-1.5791,0.43262-2.02051,0.7793c-0.40234,0.31641-0.7207,0.56641-1.4043,0.56641s-1.00195-0.25-1.4043-0.56641
		c-0.44141-0.34668-0.99219-0.7793-2.02148-0.7793c-1.02832,0-1.57715,0.43262-2.01953,0.7793
		c-0.40137,0.31641-0.71875,0.56641-1.40137,0.56641c-0.68066,0-0.99707-0.25-1.39844-0.56543
		c-0.44141-0.34766-0.99023-0.78027-2.01855-0.78027c-1.02881,0-1.57861,0.43262-2.02051,0.7793
		c-0.40234,0.31641-0.72021,0.56641-1.40332,0.56641c-0.68213,0-1-0.25-1.40186-0.56543
		c-0.44189-0.34766-0.9917-0.78027-2.02051-0.78027c-1.02832,0-1.57812,0.43262-2.01953,0.78027
		c-0.40186,0.31543-0.71924,0.56543-1.40137,0.56543v1c1.02832,0,1.57812-0.43262,2.01953-0.78027
		c0.40186-0.31543,0.71924-0.56543,1.40137-0.56543c0.68262,0,1.00049,0.25,1.40234,0.56641
		c0.44189,0.34668,0.9917,0.7793,2.02002,0.7793c1.0293,0,1.57959-0.43262,2.02148-0.78027
		c0.40234-0.31543,0.71973-0.56543,1.40234-0.56543c0.68164,0,0.99805,0.25,1.39941,0.56543
		c0.44141,0.34766,0.99023,0.78027,2.01758,0.78027c1.02832,0,1.57812-0.43262,2.02051-0.78027
		c0.40137-0.31543,0.71875-0.56543,1.40039-0.56543c0.68359,0,1.00195,0.25,1.4043,0.56641
		c0.44141,0.34668,0.99219,0.7793,2.02148,0.7793s1.58008-0.43262,2.02148-0.78027c0.40234-0.31543,0.7207-0.56543,1.40332-0.56543
		c0.68457,0,1.00195,0.25,1.40527,0.56641c0.44238,0.34668,0.99219,0.7793,2.02148,0.7793c1.03027,0,1.58203-0.43262,2.02441-0.7793
		c0.40332-0.31641,0.72168-0.56641,1.40723-0.56641s1.00488,0.25,1.4082,0.56641c0.44336,0.34766,0.99414,0.7793,2.02441,0.7793v-1
		C36.43774,34.82422,36.11938,34.57422,35.71606,34.25781z"/>
	<path class="st1" d="M33.69067,37.6543c-1.03027,0-1.58203,0.43262-2.02441,0.7793C31.26294,38.75,30.94458,39,30.25903,39
		c-0.68359,0-1.00098-0.25-1.4043-0.56641c-0.44238-0.34668-0.99219-0.7793-2.02246-0.7793
		c-1.02832,0-1.5791,0.43262-2.02051,0.7793C24.40942,38.75,24.09106,39,23.40747,39s-1.00195-0.25-1.4043-0.56641
		c-0.44141-0.34668-0.99219-0.7793-2.02148-0.7793c-1.02832,0-1.57715,0.43262-2.01953,0.7793
		C17.56079,38.75,17.24341,39,16.56079,39c-0.68066,0-0.99707-0.25-1.39844-0.56543
		c-0.44141-0.34766-0.99023-0.78027-2.01855-0.78027c-1.02881,0-1.57861,0.43262-2.02051,0.7793
		C10.72095,38.75,10.40308,39,9.71997,39c-0.68213,0-1-0.25-1.40186-0.56543c-0.44189-0.34766-0.9917-0.78027-2.02051-0.78027
		c-1.02832,0-1.57812,0.43262-2.01953,0.78027C3.87622,38.75,3.55884,39,2.87671,39v1c1.02832,0,1.57812-0.43262,2.01953-0.78027
		C5.2981,38.9043,5.61548,38.6543,6.29761,38.6543c0.68262,0,1.00049,0.25,1.40234,0.56641C8.14185,39.56738,8.69165,40,9.71997,40
		c1.0293,0,1.57959-0.43262,2.02148-0.78027c0.40234-0.31543,0.71973-0.56543,1.40234-0.56543
		c0.68164,0,0.99805,0.25,1.39941,0.56543C14.98462,39.56738,15.53345,40,16.56079,40c1.02832,0,1.57812-0.43262,2.02051-0.78027
		c0.40137-0.31543,0.71875-0.56543,1.40039-0.56543c0.68359,0,1.00195,0.25,1.4043,0.56641
		C21.82739,39.56738,22.37817,40,23.40747,40s1.58008-0.43262,2.02148-0.78027c0.40234-0.31543,0.7207-0.56543,1.40332-0.56543
		c0.68457,0,1.00195,0.25,1.40527,0.56641C28.67993,39.56738,29.22974,40,30.25903,40c1.03027,0,1.58203-0.43262,2.02441-0.7793
		c0.40332-0.31641,0.72168-0.56641,1.40723-0.56641s1.00488,0.25,1.4082,0.56641C35.54224,39.56836,36.09302,40,37.12329,40v-1
		c-0.68555,0-1.00391-0.25-1.40723-0.56641C35.27271,38.08691,34.72192,37.6543,33.69067,37.6543z"/>
	<path class="st1" d="M9.26929,32.19434l0.88379-0.4668l-2.73584-5.1709l12.08301-5.14081v2.04584l-5.59668,2.3811l0.39062,0.91992
		l5.20605-2.21503v6.60272h1v-6.60266l5.20508,2.21497l0.39062-0.91992l-5.5957-2.3811v-2.04578l12.08203,5.14075l-2.73633,5.1709
		l0.88477,0.4668l2.99023-5.65137c0.06543-0.12305,0.0752-0.26855,0.0293-0.40039c-0.04688-0.13184-0.14746-0.23828-0.27637-0.29297
		l-3.96289-1.68622v-7.30304c0-0.27637-0.22363-0.5-0.5-0.5h-2.78516v-2.55811c0-0.27637-0.22363-0.5-0.5-0.5h-1.66895v-3.08789
		c0-0.27637-0.22363-0.5-0.5-0.5h-7.11426c-0.27637,0-0.5,0.22363-0.5,0.5v3.08789h-1.66797c-0.27637,0-0.5,0.22363-0.5,0.5v2.55811
		h-2.78564c-0.27637,0-0.5,0.22363-0.5,0.5v7.3028l-3.96387,1.68646c-0.12891,0.05469-0.22852,0.16113-0.27539,0.29297
		s-0.03613,0.27734,0.0293,0.40039L9.26929,32.19434z M16.94263,10.71436h6.11426v2.58789h-6.11426V10.71436z M14.77466,14.30225
		h1.66797h7.11426h1.66895v2.05811H14.77466V14.30225z M11.48901,17.36035h2.78564h11.45117h2.78516v6.37756l-8.31543-3.53821
		c-0.125-0.05371-0.26562-0.05371-0.39062,0l-8.31592,3.53802V17.36035z"/>
</g>
</svg>
