<?xml version="1.0" encoding="utf-8"?>
<!-- Generator: Adobe Illustrator 23.0.3, SVG Export Plug-In . SVG Version: 6.00 Build 0)  -->
<svg version="1.1" id="Layer_1" xmlns="http://www.w3.org/2000/svg" xmlns:xlink="http://www.w3.org/1999/xlink" x="0px" y="0px"
	 viewBox="0 0 40 40" style="enable-background:new 0 0 40 40;" xml:space="preserve">
<style type="text/css">
	.st0{fill:none;}
	.st1{fill:#FFFFFF;}
</style>
<title>Portable-icon</title>
<rect class="st0" width="40" height="40"/>
<path class="st1" d="M31.08618,29.87402c0.125-0.09375,0.19922-0.24219,0.19922-0.39941v-9.85742
	c0-0.13623-0.05566-0.26611-0.15332-0.36084l-3.89215-3.73773l1.80914-1.80914c0.19531-0.19531,0.19531-0.51172,0-0.70703
	l-0.5036-0.5036l2.15204-2.15167c0.09375-0.09375,0.14648-0.2207,0.14648-0.35352s-0.05273-0.25977-0.14648-0.35352L28.7981,7.74121
	c-0.19531-0.19531-0.51172-0.19531-0.70703,0l-2.15143,2.15179l-0.50385-0.50385c-0.1875-0.1875-0.51953-0.1875-0.70703,0
	l-9.09113,9.09155l-0.50262-0.50269c-0.09375-0.09375-0.2207-0.14648-0.35352-0.14648s-0.25977,0.05273-0.35352,0.14648
	l-1.97461,1.97461c-0.19531,0.19531-0.19531,0.51172,0,0.70703l1.35956,1.35968l-1.92499,1.92499
	c-0.19531,0.19531-0.19531,0.51172,0,0.70703l1.89844,1.89941c0.09375,0.09375,0.2207,0.14648,0.35352,0.14648
	s0.25977-0.05273,0.35352-0.14648l1.92535-1.92535l1.3598,1.35992c0.09375,0.09375,0.2207,0.14648,0.35352,0.14648
	s0.25977-0.05273,0.35352-0.14648l1.97461-1.97461c0.19531-0.19531,0.19531-0.51172,0-0.70703l-0.50244-0.50244l1.36932-1.36932
	c0.20624,0.15088,0.42432,0.28607,0.66241,0.38708v1.64679c0,0.19238,0.11035,0.36719,0.2832,0.4502l3.3623,1.61914v1.46875
	l-1.33313,0.66101c-0.36945-0.55994-0.90881-0.99689-1.54871-1.22156c-0.80957-0.28125-1.70508-0.2168-2.46387,0.18164
	c-1.01758,0.53613-1.65039,1.58398-1.65039,2.73438v0.4248H8.80933v1h4.66455v1.32324c0,0.18652,0.10352,0.35742,0.26855,0.44336
	l2.33008,1.21484c0.07129,0.03711,0.15137,0.05664,0.23145,0.05664h2.33496v1.63965h-7.65869
	c-1.24951,0-2.26562,1.0166-2.26562,2.26562V39.5c0,0.27637,0.22363,0.5,0.5,0.5h21.5708c0.27637,0,0.5-0.22363,0.5-0.5v-1.77246
	c0-1.24902-1.0166-2.26562-2.26562-2.26562h-1.24927l-1.01898-2.33008L31.08618,29.87402z M14.13989,25.49023l-1.19141-1.19238
	l1.57129-1.57129l0.32812,0.32782l0.86389,0.86395L14.13989,25.49023z M18.13208,24.9248l-1.35767-1.35785
	c-0.00073-0.00073-0.00098-0.00177-0.00171-0.0025l-1.34357-1.3429l-1.91522-1.91541l1.26758-1.26758l4.61816,4.61865
	L18.13208,24.9248z M28.44458,8.80176l1.19238,1.19189l-1.79858,1.7981l-1.19165-1.19165L28.44458,8.80176z M25.08228,10.44971
	l0.50391,0.50391l1.89844,1.89893c0.00043,0.00043,0.00104,0.00055,0.00146,0.00098l0.50244,0.50244l-2.70953,2.70953
	c-0.55725-0.41565-1.24072-0.67047-1.98773-0.67047c-1.84375,0-3.34375,1.5-3.34375,3.34424
	c0,0.74701,0.25488,1.43042,0.67047,1.98773l-1.36676,1.36676l-2.90625-2.90625L25.08228,10.44971z M20.94751,18.73926
	c0-1.29248,1.05176-2.34424,2.34375-2.34424s2.34375,1.05176,2.34375,2.34424s-1.05176,2.34375-2.34375,2.34375
	S20.94751,20.03174,20.94751,18.73926z M26.35767,27.76172c0.16992-0.08496,0.27734-0.25879,0.27734-0.44824V25.2207
	c0-0.19238-0.11035-0.36719-0.2832-0.4502l-3.3623-1.61914v-1.09888c0.10095,0.00922,0.19843,0.03052,0.30176,0.03052
	c1.84375,0,3.34375-1.5,3.34375-3.34375c0-0.73633-0.24652-1.41162-0.65112-1.9646l0.54828-0.54828l3.75323,3.6037v9.39453
	l-3.94556,2.9657l-1.58801-3.63147L26.35767,27.76172z M16.42603,32.82227l-1.95215-1.01758v-1.02051h4.16504v2.03809H16.42603z
	 M30.2854,37.72754V39H9.7146v-1.27246c0-0.69824,0.56787-1.26562,1.26562-1.26562h18.03955
	C29.71802,36.46191,30.2854,37.0293,30.2854,37.72754z M19.63892,35.46191v-6.10254c0-0.77832,0.42773-1.48633,1.11621-1.84961
	c0.52051-0.27344,1.11035-0.31738,1.66699-0.12207c0.55273,0.19336,0.9873,0.59668,1.22266,1.13477l3.03461,6.93945H19.63892z"/>
</svg>
