<?xml version="1.0" encoding="utf-8"?>
<!-- Generator: Adobe Illustrator 23.0.3, SVG Export Plug-In . SVG Version: 6.00 Build 0)  -->
<svg version="1.1" id="Layer_1" xmlns="http://www.w3.org/2000/svg" xmlns:xlink="http://www.w3.org/1999/xlink" x="0px" y="0px"
	 viewBox="0 0 40 40" style="enable-background:new 0 0 40 40;" xml:space="preserve">
<style type="text/css">
	.st0{fill:none;}
	.st1{fill:#FFFFFF;}
</style>
<title>Portable-icon</title>
<rect class="st0" width="40" height="40"/>
<g>
	<path class="st1" d="M32.10107,22.61865c-0.94141,0-1.81738-0.36328-2.47266-1.02881
		c-0.66016-0.6499-1.02344-1.52246-1.02344-2.45703V13.2002c0-0.27637-0.22363-0.5-0.5-0.5h-4.33301c-0.27637,0-0.5,0.22363-0.5,0.5
		c0,1.80957-1.46777,3.28174-3.27148,3.28174c-1.80957,0-3.28223-1.47217-3.28223-3.28174c0-0.27637-0.22363-0.5-0.5-0.5h-4.3335
		c-0.27637,0-0.5,0.22363-0.5,0.5v5.93262c0,1.92188-1.56396,3.48584-3.48584,3.48584c-0.27637,0-0.5,0.22363-0.5,0.5V39.5
		c0,0.27637,0.22363,0.5,0.5,0.5h24.20215c0.27637,0,0.5-0.22363,0.5-0.5V23.11865
		C32.60107,22.84229,32.37744,22.61865,32.10107,22.61865z M8.39893,23.59082c2.23926-0.24902,3.98633-2.15332,3.98633-4.45801
		V13.7002h3.3623c0.2287,1.96033,1.7926,3.50348,3.75293,3.7348v8.41559h-9.44287v1h9.44287v1.62012h-9.44287v1h9.44287v2.2334
		h-1.76367v1h1.76367v2.44824h-9.44287v1h9.44287V39H8.39893V23.59082z M31.60107,39H20.50049v-2.84766h9.44238v-1h-9.44238V32.7041
		h1.7627v-1h-1.7627v-2.2334h9.44238v-1h-9.44238v-1.62012h9.44238v-1h-9.44238v-8.41571
		c1.95459-0.23187,3.5144-1.77478,3.74219-3.73468h3.3623v5.43262c0,1.20459,0.46973,2.33057,1.31641,3.16406
		c0.72266,0.73389,1.66016,1.18408,2.67969,1.29492V39z"/>
	<path class="st1" d="M26.45557,20.00781h-0.9082V19.1001c0-0.27637-0.22363-0.5-0.5-0.5h-1.58789c-0.27637,0-0.5,0.22363-0.5,0.5
		v0.90771h-0.9082c-0.27637,0-0.5,0.22363-0.5,0.5v1.58887c0,0.27637,0.22363,0.5,0.5,0.5h0.9082v0.90771
		c0,0.27588,0.22363,0.50049,0.5,0.50049h1.58789c0.27637,0,0.5-0.22461,0.5-0.50049v-0.90771h0.9082c0.27637,0,0.5-0.22363,0.5-0.5
		v-1.58887C26.95557,20.23145,26.73193,20.00781,26.45557,20.00781z M25.95557,21.59668h-0.9082c-0.27637,0-0.5,0.22363-0.5,0.5
		v0.90771h-0.58789v-0.90771c0-0.27637-0.22363-0.5-0.5-0.5h-0.9082v-0.58887h0.9082c0.27637,0,0.5-0.22363,0.5-0.5V19.6001h0.58789
		v0.90771c0,0.27637,0.22363,0.5,0.5,0.5h0.9082V21.59668z"/>
</g>
</svg>
