<?xml version="1.0" encoding="utf-8"?>
<!-- Generator: Adobe Illustrator 23.0.3, SVG Export Plug-In . SVG Version: 6.00 Build 0)  -->
<svg version="1.1" id="Layer_1" xmlns="http://www.w3.org/2000/svg" xmlns:xlink="http://www.w3.org/1999/xlink" x="0px" y="0px"
	 viewBox="0 0 40 40" style="enable-background:new 0 0 40 40;" xml:space="preserve">
<style type="text/css">
	.st0{fill:none;}
	.st1{fill:#FFFFFF;}
</style>
<title>Portable-icon</title>
<rect class="st0" width="40" height="40"/>
<g>
	<path class="st1" d="M14.3938,35.35254c-0.46387-0.83887-1.56348-2-3.32861-2.01758
		c-0.24561-0.67773-0.91943-1.96191-2.55176-2.18945l-0.1377,0.99023c0.99048,0.13806,1.46344,0.86938,1.67584,1.36035
		c-0.56097,0.07629-1.61072,0.02277-2.89264-1.0293l-0.63379,0.77344c1.25684,1.03125,2.38525,1.28027,3.18262,1.28027
		c0.52557,0,0.90381-0.10779,1.08325-0.17175c1.45081-0.11005,2.25635,0.77039,2.60608,1.30237
		c-0.43542,0.1911-1.21411,0.39191-2.15759-0.00854l-0.39111,0.91992c0.53857,0.22852,1.04053,0.3125,1.48779,0.3125
		c0.90179,0,1.57898-0.34088,1.87744-0.52393c2.29388,0.0896,2.97034,3.41992,2.97705,3.45459l0.98242-0.18848
		C18.14087,39.44629,17.36646,35.57227,14.3938,35.35254z"/>
	<path class="st1" d="M27.52118,34.87976c0.10168-0.44171,0.29462-0.95227,0.66754-1.27429l-0.6543-0.75586
		c-0.86768,0.7489-1.06482,2.02832-1.11047,2.59808c-1.80737,1.15039-2.16364,4.07697-2.17859,4.2066l0.99414,0.11328
		c0.08789-0.77734,0.59961-2.93359,1.89062-3.5791l3.50879-1.7334l-0.44336-0.89648L27.52118,34.87976z"/>
	<path class="st1" d="M33.41821,30.82129c-0.83301,0.20251-2.48529-0.3183-3.51776-0.71405l0.64221-0.76306
		c0.41345,0.229,0.89563,0.30914,1.35114,0.30914c0.7666,0,1.45215-0.21094,1.58105-0.25293l-0.30957-0.95117
		c-0.40448,0.12976-1.58447,0.36957-2.18616-0.01508l0.15393-2.07086l-0.99805-0.07422l-0.16113,2.17773l-1.14398,1.35834
		l-2.97174,0.17413c0.3205-0.51294,0.56842-1.15973,0.63525-2.04419c0.00641-0.04614,0.08484-0.61896,0.12158-1.39343
		c0.46252-0.19623,1.31445-0.61151,1.83838-1.20422c0.73535-0.83301,2.50684-2.01074,3.0127-1.88184l0.24219-0.9707
		c-1.26855-0.31152-3.5166,1.6377-4.00488,2.19043c-0.26611,0.30115-0.69617,0.56464-1.07635,0.75775
		c-0.01208-0.49066-0.04938-0.99738-0.13654-1.47064l-0.98438,0.18164c0.28516,1.54492,0,3.63184-0.00684,3.68359
		c-0.11523,1.52051-0.80762,2.11816-1.54199,2.75195c-0.75684,0.65332-1.61523,1.39453-1.49023,3.08398
		c0.13275,1.77148-0.78021,2.65466-1.34296,3.03076c-1.0141-2.3244-1.83405-5.64587,0.30194-7.92432
		c0.00201-0.00214,0.0022-0.00531,0.00415-0.00745l0.00171,0.00159c0.30078-0.33301,2.85059-3.21191,2.78613-5.24219
		c0.32947-0.41492,1.11713-1.53137,1.31104-2.76544c0.8728-0.17358,2.48987-0.6145,2.76807-1.54022l-0.95703-0.28857
		c-0.07379,0.24304-0.88824,0.59137-1.80762,0.80261c-0.034-0.19421-0.07904-0.38824-0.16016-0.57849
		c0.42871-0.4043,1.11328-1.22754,1.25098-2.4502l-0.99414-0.11133c-0.14551,1.2998-1.16016,2.01904-1.16797,2.02441
		c-0.22461,0.15283-0.28613,0.45605-0.13965,0.68359c0.95117,1.47949-0.97461,3.70898-0.99414,3.73145
		c-0.0957,0.10938-0.13965,0.25586-0.11914,0.39941c0.1463,1.04785-1.01154,2.79138-1.88837,3.90619l-0.69708-2.99182
		c0.17053-0.65918,0.98871-3.92493,1.23218-6.65198c1.32831-0.58765,3.36865-2.17426,3.19214-4.80048l-0.99805,0.06738
		c0.133,1.97308-1.28357,3.09064-2.16406,3.59167V13.6001h-1l0.00098,3.72705c-0.14581,2.01868-0.69171,4.53961-1.01569,5.90729
		c-0.62561-1.01208-1.56134-3.1687-1.68549-7.16168l2.89844-6.47998l-0.91211-0.4082l-2.61548,5.84705
		c-0.68439-0.92163-1.88574-2.93127-2.0603-5.9325l-0.99805,0.05859c0.23419,4.02728,2.14935,6.42029,2.69348,7.02368
		c0.0191,0.56,0.05402,1.08588,0.10175,1.58105c-0.72235-0.36035-1.82501-0.83881-3.05273-1.13263
		c-0.32654-0.79126-1.31097-2.9248-2.76984-3.84662l-0.53369,0.8457c0.94897,0.59924,1.69598,1.91504,2.11377,2.79083
		c-0.47107-0.05267-0.94666-0.07092-1.41504-0.0296l0.08984,0.99609c2.33173-0.2016,4.98773,1.17712,5.71582,1.58527
		c0.55444,3.6123,1.80774,5.20697,2.21191,5.63788l0.8623,3.69922c-0.24133,0.28076-0.44641,0.57214-0.62134,0.87109
		c-0.53302-0.92999-1.48486-2.35266-2.74933-3.29858c0.04431-0.90057-0.00354-3.78595-2.24261-5.50513l-0.60938,0.79297
		c1.50659,1.15674,1.8078,3.04626,1.85059,4.10187c-2.26361-1.12531-6.68201-6.85815-6.72705-6.91632l-0.79297,0.6084
		c0.18994,0.24805,4.68311,6.0791,7.14697,7.24316c1.90289,0.8996,3.28278,3.47485,3.61786,4.14832
		c-0.38275,1.20123-0.3819,2.46924-0.16412,3.68292c-0.97064-0.51941-2.50171-1.67883-3.07208-3.99042
		c0.02722-0.34814,0.07861-1.46045-0.27521-2.16895l-0.89453,0.44727c0.15198,0.30389,0.19415,0.85956,0.1875,1.30933
		c-0.05524-0.01245-0.11554-0.03326-0.17871-0.06714c-0.4043-0.2168-0.75293-0.8418-0.98242-1.75977l-0.9707,0.24219
		c0.31543,1.25977,0.8291,2.0752,1.52832,2.42285c0.26074,0.12988,0.50586,0.17383,0.71094,0.17773
		c0.03796,0.12811,0.08423,0.245,0.12708,0.36664c-0.84949,0.10944-2.69-0.08368-4.34143-3.15863
		c0.11035-0.61719,0.21143-2.43262-1.65088-4.78906L8.6272,23.69043c0.60425,0.76447,0.9538,1.43665,1.17242,2.01654
		c-0.66815,0.0545-1.83459-0.04773-2.61432-1.25482l-0.83984,0.54297c0.87549,1.35547,2.19922,1.72754,3.22412,1.72754
		c0.17963,0,0.34546-0.01477,0.50281-0.03424c0.09949,0.66095-0.00464,1.05548-0.01355,1.08502
		c-0.04199,0.12695-0.03076,0.2666,0.03125,0.38574c1.69238,3.26562,3.72656,3.86133,4.98633,3.86133
		c0.29095,0,0.52612-0.03381,0.72083-0.07184c1.12659,2.18219,3.0105,3.05884,3.72095,3.32233
		c0.7403,2.53302,2.14807,4.57013,2.26038,4.729l0.81641-0.57715c-0.01526-0.02179-0.50208-0.72504-1.04272-1.79181
		c0.91833-0.56317,2.0752-1.84613,1.91284-4.02167c-0.08887-1.1875,0.42871-1.63477,1.14551-2.25293
		c0.11127-0.09601,0.2265-0.1972,0.34253-0.30261l4.03149-0.23645c0.5459,0.23438,2.54688,1.0459,4.00977,1.0459
		c0.23633,0,0.45996-0.02148,0.66016-0.06934L33.41821,30.82129z"/>
</g>
</svg>
